HIERARCHY
ROOT Hip
{
	OFFSET 0 1.131 0.0052
	CHANNELS 6 Xposition Yposition Zposition Xrotation Yrotation Zrotation
	JOINT Abdomen
	{
		OFFSET 0 -0.047353 -0.05
		CHANNELS 3 Xrotation Zrotation Yrotation
		JOINT Chest
		{
			OFFSET 0 0.132153 0.007439
			CHANNELS 3 Xrotation Zrotation Yrotation
			JOINT Neck
			{
				OFFSET 0 0.3078 0.006161
				CHANNELS 3 Xrotation Zrotation Yrotation
				JOINT Head_comp
				{
					OFFSET 0 0.0884 0.013
					CHANNELS 3 Xrotation Yrotation Zrotation
					End Site
					{
						OFFSET -0 0.156 0.0624
					}
				}
			}
			JOINT Left_Collar
			{
				OFFSET 0.02282 0.250342 0.017193
				CHANNELS 2 Yrotation Zrotation
				JOINT Left_Shoulder
				{
					OFFSET 0.15421 0 0
					CHANNELS 3 Xrotation Yrotation Zrotation
					JOINT Left_Forearm
					{
						OFFSET 0.265212 0 0
						CHANNELS 2 Yrotation Xrotation
						JOINT Left_Hand
						{
							OFFSET 0.27571 0 0
							CHANNELS 2 Zrotation Yrotation
							JOINT L1ProxPhalanx
							{
								OFFSET 0.026048 0.001733 0.033312
								CHANNELS 3 Yrotation Zrotation Xrotation
								JOINT L1MidPhalanx
								{
									OFFSET 0.039 0 0
									CHANNELS 1 Zrotation
									JOINT L1DistPhalanx
									{
										OFFSET 0.037 0 0
										CHANNELS 1 Zrotation
										End Site
										{
											OFFSET 0.028 -0 -0
										}
									}
								}
							}
							JOINT L2ProxPhalanx
							{
								OFFSET 0.085048 0.001578 0.030316
								CHANNELS 2 Yrotation Zrotation
								JOINT L2MidPhalanx
								{
									OFFSET 0.037 0 0
									CHANNELS 1 Zrotation
									JOINT L2DistPhalanx
									{
										OFFSET 0.027 0 0
										CHANNELS 1 Zrotation
										End Site
										{
											OFFSET 0.023 -0 -0
										}
									}
								}
							}
							JOINT L3ProxPhalanx
							{
								OFFSET 0.087048 0.000278 0.00535
								CHANNELS 2 Yrotation Zrotation
								JOINT L3MidPhalanx
								{
									OFFSET 0.041 0 0
									CHANNELS 1 Zrotation
									JOINT L3DistPhalanx
									{
										OFFSET 0.029 0 0
										CHANNELS 1 Zrotation
										End Site
										{
											OFFSET 0.022 -0 -0
										}
									}
								}
							}
							JOINT L4ProxPhalanx
							{
								OFFSET 0.082048 -0.000761 -0.014623
								CHANNELS 2 Yrotation Zrotation
								JOINT L4MidPhalanx
								{
									OFFSET 0.043 0 0
									CHANNELS 1 Zrotation
									JOINT L4DistPhalanx
									{
										OFFSET 0.027 0 0
										CHANNELS 1 Zrotation
										End Site
										{
											OFFSET 0.02 -0 -0
										}
									}
								}
							}
							JOINT L5ProxPhalanx
							{
								OFFSET 0.070048 -0.001644 -0.0316
								CHANNELS 2 Yrotation Zrotation
								JOINT L5MidPhalanx
								{
									OFFSET 0.032 0 0
									CHANNELS 1 Zrotation
									JOINT L5DistPhalanx
									{
										OFFSET 0.021 0 0
										CHANNELS 1 Zrotation
										End Site
										{
											OFFSET 0.02 -0 -0
										}
									}
								}
							}
						}
					}
				}
			}
			JOINT Right_Collar
			{
				OFFSET -0.02282 0.250342 0.017193
				CHANNELS 2 Yrotation Zrotation
				JOINT Right_Shoulder
				{
					OFFSET -0.15421 0 0
					CHANNELS 3 Xrotation Yrotation Zrotation
					JOINT Right_Forearm
					{
						OFFSET -0.265212 0 0
						CHANNELS 2 Yrotation Xrotation
						JOINT Right_Hand
						{
							OFFSET -0.27571 3e-006 0
							CHANNELS 2 Zrotation Yrotation
							JOINT R1ProxPhalanx
							{
								OFFSET -0.026048 0.001733 0.033312
								CHANNELS 3 Yrotation Zrotation Xrotation
								JOINT R1MidPhalanx
								{
									OFFSET -0.039 0 0
									CHANNELS 1 Zrotation
									JOINT R1DistPhalanx
									{
										OFFSET -0.037 0 0
										CHANNELS 1 Zrotation
										End Site
										{
											OFFSET -0.028 -0 -0
										}
									}
								}
							}
							JOINT R2ProxPhalanx
							{
								OFFSET -0.085048 0.001578 0.030316
								CHANNELS 2 Yrotation Zrotation
								JOINT R2MidPhalanx
								{
									OFFSET -0.037 0 0
									CHANNELS 1 Zrotation
									JOINT R2DistPhalanx
									{
										OFFSET -0.027 0 0
										CHANNELS 1 Zrotation
										End Site
										{
											OFFSET -0.023 -0 -0
										}
									}
								}
							}
							JOINT R3ProxPhalanx
							{
								OFFSET -0.087048 0.000278 0.00535
								CHANNELS 2 Yrotation Zrotation
								JOINT R3MidPhalanx
								{
									OFFSET -0.041 0 0
									CHANNELS 1 Zrotation
									JOINT R3DistPhalanx
									{
										OFFSET -0.029 0 0
										CHANNELS 1 Zrotation
										End Site
										{
											OFFSET -0.022 -0 -0
										}
									}
								}
							}
							JOINT R4ProxPhalanx
							{
								OFFSET -0.082048 -0.000761 -0.014623
								CHANNELS 2 Yrotation Zrotation
								JOINT R4MidPhalanx
								{
									OFFSET -0.043 0 0
									CHANNELS 1 Zrotation
									JOINT R4DistPhalanx
									{
										OFFSET -0.027 0 0
										CHANNELS 1 Zrotation
										End Site
										{
											OFFSET -0.02 -0 -0
										}
									}
								}
							}
							JOINT R5ProxPhalanx
							{
								OFFSET -0.070048 -0.001644 -0.0316
								CHANNELS 2 Yrotation Zrotation
								JOINT R5MidPhalanx
								{
									OFFSET -0.032 0 0
									CHANNELS 1 Zrotation
									JOINT R5DistPhalanx
									{
										OFFSET -0.021 0 0
										CHANNELS 1 Zrotation
										End Site
										{
											OFFSET -0.02 -0 -0
										}
									}
								}
							}
						}
					}
				}
			}
		}
	}
	JOINT Left_Thigh
	{
		OFFSET 0.1118 -0.1612 -0.0442
		CHANNELS 3 Xrotation Zrotation Yrotation
		JOINT Left_Shin
		{
			OFFSET 0 -0.477856 0
			CHANNELS 1 Xrotation
			JOINT Left_Foot
			{
				OFFSET 0 -0.431952 0
				CHANNELS 2 Xrotation Zrotation
				End Site
				{
					OFFSET -0 -0.0884 0.078
				}
			}
		}
	}
	JOINT Right_Thigh
	{
		OFFSET -0.1118 -0.1612 -0.0442
		CHANNELS 3 Xrotation Zrotation Yrotation
		JOINT Right_Shin
		{
			OFFSET 0 -0.477856 0
			CHANNELS 1 Xrotation
			JOINT Right_Foot
			{
				OFFSET 0 -0.431952 0
				CHANNELS 2 Xrotation Zrotation
				End Site
				{
					OFFSET -0 -0.0884 0.078
				}
			}
		}
	}
}
MOTION
Frames: 8
Frame Time: 0.008333
-0.009291 0.004970 -0.250645 17.377949 -1.363404 3.848973 -13.466370 -0.250820 3.893337 -1.416971 -4.883479 -7.709054 -8.254016 -1.821127 -5.362296 -14.955238 -7.852838 4.000748 1.913792 13.323590 -27.200500 24.599600 -70.327301 -97.461098 25.321054 41.355278 -23.072456 0.000000 0.000000 0.000000 0.000000 0.000000 0.000000 0.000000 0.000000 0.000000 0.000000 0.000000 0.000000 0.000000 0.000000 0.000000 0.000000 0.000000 0.000000 0.000000 0.000000 0.000000 -0.932793 -13.542425 -28.176100 -20.513599 68.792198 100.631798 9.977160 -35.617134 24.923576 0.000000 0.000000 0.000000 0.000000 0.000000 0.000000 0.000000 0.000000 0.000000 0.000000 0.000000 0.000000 0.000000 0.000000 0.000000 0.000000 0.000000 0.000000 0.000000 0.000000 0.000000 -16.850965 0.321262 8.224629 1.383500 -14.861530 7.254753 -15.546152 -4.078526 -10.615795 6.490600 -41.293507 6.794396 
-0.009669 0.004979 -0.250960 17.402416 -1.299916 3.808852 -13.437646 -0.267579 3.900943 -1.388257 -4.843343 -7.700061 -8.370582 -1.867735 -5.331998 -15.005888 -7.981110 4.188501 1.919717 13.386073 -26.977200 24.739799 -70.525703 -98.053802 25.078337 41.448490 -22.720400 0.000000 0.000000 0.000000 0.000000 0.000000 0.000000 0.000000 0.000000 0.000000 0.000000 0.000000 0.000000 0.000000 0.000000 0.000000 0.000000 0.000000 0.000000 0.000000 0.000000 0.000000 -0.953540 -13.453179 -28.096800 -20.552999 68.804497 100.860298 9.698872 -35.855061 25.111568 0.000000 0.000000 0.000000 0.000000 0.000000 0.000000 0.000000 0.000000 0.000000 0.000000 0.000000 0.000000 0.000000 0.000000 0.000000 0.000000 0.000000 0.000000 0.000000 0.000000 0.000000 -17.055975 0.382534 8.317487 1.668800 -14.973166 7.233404 -15.571323 -4.039801 -10.652375 6.500600 -41.516056 7.130188 
-0.010022 0.004992 -0.251240 17.423841 -1.252381 3.770315 -13.411841 -0.271862 3.922644 -1.351308 -4.804434 -7.678843 -8.313830 -1.715401 -5.391961 -15.452522 -7.912589 4.053486 1.918870 13.409114 -26.786501 24.855801 -70.730904 -98.684998 24.601347 41.600670 -22.344635 0.000000 0.000000 0.000000 0.000000 0.000000 0.000000 0.000000 0.000000 0.000000 0.000000 0.000000 0.000000 0.000000 0.000000 0.000000 0.000000 0.000000 0.000000 0.000000 0.000000 0.000000 -0.998389 -13.404561 -27.842400 -20.481899 68.789497 101.181099 9.207725 -36.120407 25.251503 0.000000 0.000000 0.000000 0.000000 0.000000 0.000000 0.000000 0.000000 0.000000 0.000000 0.000000 0.000000 0.000000 0.000000 0.000000 0.000000 0.000000 0.000000 0.000000 0.000000 0.000000 -17.237368 0.443166 8.424354 1.933300 -15.091935 7.230507 -15.617666 -3.990175 -10.621343 6.569300 -41.823170 6.867958 
-0.010463 0.004949 -0.251542 17.452085 -1.204363 3.723954 -13.387759 -0.271660 3.929244 -1.301998 -4.762858 -7.674058 -8.449181 -1.736366 -5.344343 -15.541790 -7.985802 4.167767 1.954345 13.453652 -26.606501 25.107100 -70.987801 -99.418198 24.091894 41.267120 -21.838200 0.000000 0.000000 0.000000 0.000000 0.000000 0.000000 0.000000 0.000000 0.000000 0.000000 0.000000 0.000000 0.000000 0.000000 0.000000 0.000000 0.000000 0.000000 0.000000 0.000000 0.000000 -1.051990 -13.369572 -27.749500 -20.539301 68.958603 101.504700 8.707743 -36.346333 25.545250 0.000000 0.000000 0.000000 0.000000 0.000000 0.000000 0.000000 0.000000 0.000000 0.000000 0.000000 0.000000 0.000000 0.000000 0.000000 0.000000 0.000000 0.000000 0.000000 0.000000 0.000000 -17.457653 0.526533 8.442260 2.250600 -15.208733 7.181555 -15.645702 -3.919644 -10.509060 6.564900 -42.017338 6.778636 
-0.010819 0.004927 -0.251790 17.475937 -1.167892 3.692915 -13.373682 -0.288917 3.936650 -1.256536 -4.721821 -7.665371 -8.364265 -1.557443 -5.400512 -16.011898 -7.898047 4.018254 1.961175 13.515868 -26.440399 25.277500 -71.216599 -100.126602 23.206167 41.663197 -21.472200 0.000000 0.000000 0.000000 0.000000 0.000000 0.000000 0.000000 0.000000 0.000000 0.000000 0.000000 0.000000 0.000000 0.000000 0.000000 0.000000 0.000000 0.000000 0.000000 0.000000 0.000000 -1.090339 -13.267928 -27.634300 -20.494101 69.026901 101.831398 8.168851 -36.808968 25.812191 0.000000 0.000000 0.000000 0.000000 0.000000 0.000000 0.000000 0.000000 0.000000 0.000000 0.000000 0.000000 0.000000 0.000000 0.000000 0.000000 0.000000 0.000000 0.000000 0.000000 0.000000 -17.675879 0.588307 8.538053 2.587100 -15.386703 7.244155 -15.687189 -3.865303 -10.442620 6.586300 -42.115124 6.903189 
-0.011194 0.004883 -0.251991 17.504272 -1.138499 3.665683 -13.359298 -0.298590 3.946054 -1.210295 -4.684856 -7.655730 -8.507428 -1.583851 -5.305197 -16.016291 -7.963608 4.168857 2.009362 13.559479 -26.250401 25.500500 -71.501900 -100.917702 22.006651 41.629692 -20.782171 0.000000 0.000000 0.000000 0.000000 0.000000 0.000000 0.000000 0.000000 0.000000 0.000000 0.000000 0.000000 0.000000 0.000000 0.000000 0.000000 0.000000 0.000000 0.000000 0.000000 0.000000 -1.134499 -13.187015 -27.387501 -20.355400 69.049004 102.289497 7.600609 -36.957031 25.894024 0.000000 0.000000 0.000000 0.000000 0.000000 0.000000 0.000000 0.000000 0.000000 0.000000 0.000000 0.000000 0.000000 0.000000 0.000000 0.000000 0.000000 0.000000 0.000000 0.000000 0.000000 -17.878305 0.647689 8.569151 2.896300 -15.500897 7.220575 -15.745708 -3.806614 -10.359106 6.640900 -42.287930 6.669718 
-0.011765 0.004859 -0.252271 17.605343 -1.066542 3.599865 -13.381249 -0.330625 3.919065 -1.211614 -4.612522 -7.681026 -8.591000 -1.486742 -5.250865 -16.175152 -7.989922 4.115769 1.996431 13.674740 -25.940701 25.935499 -71.843597 -101.805801 20.657007 41.207127 -19.874681 0.000000 0.000000 0.000000 0.000000 0.000000 0.000000 0.000000 0.000000 0.000000 0.000000 0.000000 0.000000 0.000000 0.000000 0.000000 0.000000 0.000000 0.000000 0.000000 0.000000 0.000000 -1.212989 -13.013987 -27.278099 -20.167299 69.084297 102.697701 7.178428 -37.208736 26.029758 0.000000 0.000000 0.000000 0.000000 0.000000 0.000000 0.000000 0.000000 0.000000 0.000000 0.000000 0.000000 0.000000 0.000000 0.000000 0.000000 0.000000 0.000000 0.000000 0.000000 0.000000 -18.187943 0.751458 8.548741 3.241900 -15.671306 7.219944 -15.832170 -3.697726 -10.290055 6.614500 -42.362377 6.458555 
-0.012181 0.004796 -0.252263 17.595938 -1.106582 3.610573 -13.364972 -0.334806 3.941967 -1.165385 -4.603261 -7.657447 -8.521605 -1.439923 -5.231893 -16.485935 -7.921286 4.138272 2.033424 13.659012 -25.910601 26.171200 -72.021004 -102.647202 18.814924 41.011337 -18.676918 0.000000 0.000000 0.000000 0.000000 0.000000 0.000000 0.000000 0.000000 0.000000 0.000000 0.000000 0.000000 0.000000 0.000000 0.000000 0.000000 0.000000 0.000000 0.000000 0.000000 0.000000 -1.223055 -13.019938 -27.057899 -20.113800 69.426399 103.095901 6.860085 -37.478699 26.225521 0.000000 0.000000 0.000000 0.000000 0.000000 0.000000 0.000000 0.000000 0.000000 0.000000 0.000000 0.000000 0.000000 0.000000 0.000000 0.000000 0.000000 0.000000 0.000000 0.000000 0.000000 -18.336975 0.801207 8.639051 3.585300 -15.875751 7.269426 -15.863434 -3.663658 -10.146154 6.706500 -42.602127 6.189595 
